<?xml version="1.0" encoding="utf-8"?>
<svg width="1364px" height="874px" viewbox="0 0 1364 874" version="1.1" xmlns:xlink="http://www.w3.org/1999/xlink" xmlns="http://www.w3.org/2000/svg">
  <g id="ZEN">
    <path d="M0 0L1364 0L1364 874L0 874L0 0Z" id="Rectangle" fill="#D4F8E8" fill-rule="evenodd" stroke="none" />
    <path d="M312.848 358.651L312.848 442L0 442L0 375.7L196.296 83.3486L4.0895 83.3486L4.0895 0L305.18 0L305.18 66.3L109.394 358.651L312.848 358.651L312.848 358.651ZM681.049 359.914L681.049 442L403.985 442L403.985 0L674.404 0L674.404 82.0857L486.287 82.0857L486.287 178.063L652.423 178.063L652.423 257.623L486.287 257.623L486.287 359.914L681.049 359.914L681.049 359.914ZM1113.15 442L1113.15 0L1031.36 0L1031.36 268.357L853.466 0L784.967 0L784.967 442L866.757 442L866.757 173.643L1045.16 442L1113.15 442L1113.15 442Z" transform="translate(125.5918 216.56683)" id="Shape" fill="#009688" fill-rule="evenodd" stroke="none" />
  </g>
</svg>