<svg version="1" xmlns="http://www.w3.org/2000/svg" width="2000" height="2000" viewBox="0 0 1500.000000 1500.000000"><path d="M84 525.5V578h115.5c63.5 0 115.5.2 115.5.4s-53.1 82.6-118 183L79 944v84h378V923l-122.6-.2-122.5-.3 118-183 118.1-183V473H84v52.5zM566 750.5V1028h335V924H666V797h201l-.2-50.3-.3-50.2-100.2-.3L666 696V577h227V473H566v277.5zM1026 750.5V1028h99l.2-167.6.3-167.6 107.1 167.3 107.2 167.4 41.6.3 41.6.2V473h-100l-.2 167.3-.3 167.4-106.6-167.1-106.5-167.1-41.7-.3-41.7-.2v277.5z"/></svg>